 <svg
    xmlns="http://www.w3.org/2000/svg"
    fill="none"
    viewBox="0 118.368 962.1621621621623 959.04"
    preserveAspectRatio="none"
    height="1280"
      width="960"
  >
    <mask
      height="1280"
      width="960"
      y="0"
      x="0"
      maskUnits="userSpaceOnUse"
      style="mask-type: alpha;"
      id="mask0_120_1457"
    >
      <rect fill="url(#paint0_linear_120_1457)" height="1280" width="960" />
    </mask>
    <g mask="url(#mask0_120_1457)">
      <path fill="url(#paint1_linear_120_1457)" d="M0 122H960V1080H0V122Z" />
      <circle fill="white" r="90.5" cy="361.5" cx="30.5" opacity="0.15" />
      <circle fill="white" r="18.5" cy="573.5" cx="536.5" opacity="0.66" />
      <circle fill="white" r="13" cy="183" cx="177" opacity="0.2" />
      <circle fill="#008080" r="9" cy="500" cx="846" />
      <circle fill="#008080" r="15.5" cy="444.5" cx="880.5" opacity="0.2" />
      <circle fill="white" r="33" cy="371" cx="872" opacity="0.1" />
      <circle fill-opacity="0.49" fill="white" r="7" cy="446" cx="809" />
      <circle fill="white" r="123.5" cy="1067.5" cx="935.5" opacity="0.15" />
    </g>
    <path
      fill="url(#paint2_linear_120_1457)"
      d="M321.1 719.374H590.8C594.7 715.274 598.4 711.174 602.1 706.874C632.9 671.074 581 617.074 591.4 571.174C599.5 535.574 649.1 493.274 622.4 456.374C607.4 435.674 582.6 442.274 561.4 446.474C533.6 451.974 512.8 448.374 496 423.474C481.6 402.074 472.3 377.274 445.7 368.474C422.4 360.774 395.3 366.474 375 379.674C363.1 387.374 353.3 398.974 349.4 412.574C343.2 434.274 350.4 458.374 341.8 479.474C334 498.674 315.8 510.574 297.9 519.274C270.7 532.574 239.5 544.574 237.3 579.374C235.5 607.374 251.9 632.874 268.6 653.974C276.9 664.474 286.2 673.874 294.7 684.174C298.4 688.774 316.7 719.374 321.1 719.374Z"
    />
    <g clip-path="url(#clip0_120_1457)">
      <path fill="#E3EAFC" d="M675.8 475.774H566.6V633.774H675.8V475.774Z" />
      <path
        stroke-miterlimit="10"
        stroke-width="1.1943"
        stroke="#B3C6FC"
        fill="#EFF3FC"
        d="M675.8 472.574H566.6V630.574H675.8V472.574Z"
      />
      <path
        fill="#EFF3FC"
        d="M573.809 480.906V622.306H668.609V480.906H573.809Z"
      />
      <g opacity="0.5">
        <path
          fill="white"
          d="M663.5 480.874L573.8 589.974V550.574L631.1 480.874H663.5Z"
        />
        <path
          fill="white"
          d="M668.6 508.174V547.474L607.2 622.274H574.8L668.6 508.174Z"
        />
      </g>
      <path
        stroke-miterlimit="10"
        stroke-width="1.1943"
        stroke="#B3C6FC"
        fill="#EFF3FC"
        d="M668.6 548.274H624.1V480.874H618.3V548.274H573.8V554.874H618.3V622.274H624.1V554.874H668.6V548.274Z"
      />
      <path
        stroke-miterlimit="10"
        stroke-width="1.1943"
        stroke="#B3C6FC"
        d="M573.809 480.906V622.306H668.609V480.906H573.809Z"
      />
    </g>
    <g clip-path="url(#clip1_120_1457)">
      <path
        stroke-miterlimit="10"
        stroke-width="1.0833"
        stroke="#B3C6FC"
        fill="#EFF3FC"
        d="M325.2 549.074H256.5V556.574H325.2V549.074Z"
      />
      <path fill="#E3EAFC" d="M325.2 551.674H256.5V559.174H325.2V551.674Z" />
      <path
        stroke-miterlimit="10"
        stroke-width="1.1943"
        stroke="#B3C6FC"
        fill="#EFF3FC"
        d="M267.1 520.174H259.8V549.074H267.1V520.174Z"
      />
      <path
        stroke-miterlimit="10"
        stroke-width="1.3765"
        stroke="#B3C6FC"
        fill="#EFF3FC"
        d="M276.5 510.674H269.2V549.074H276.5V510.674Z"
      />
      <path
        stroke-miterlimit="10"
        stroke-width="1.3765"
        stroke="#B3C6FC"
        fill="#EFF3FC"
        d="M285.8 510.674H278.5V549.074H285.8V510.674Z"
      />
    </g>
    <g clip-path="url(#clip2_120_1457)">
      <path
        stroke-linejoin="round"
        stroke-linecap="round"
        stroke-miterlimit="10"
        stroke-width="2.0611"
        stroke="#B3C6FC"
        d="M468.3 382.974V479.274"
      />
      <path
        stroke-miterlimit="10"
        stroke-width="1.1113"
        stroke="#B3C6FC"
        fill="#FFC55A"
        d="M475.4 491.374C475.4 495.274 472.2 498.474 468.3 498.474C464.4 498.474 461.2 495.274 461.2 491.374C461.2 487.474 464.4 484.274 468.3 484.274C472.2 484.274 475.4 487.474 475.4 491.374Z"
      />
      <path
        stroke-miterlimit="10"
        stroke-width="1.1113"
        stroke="#B3C6FC"
        fill="#EFF3FC"
        d="M495.4 479.274H490.9C490.9 479.174 491 478.974 491 478.874C491 473.974 480.8 469.974 468.3 469.974C455.8 469.974 445.7 473.974 445.7 478.874C445.7 478.974 445.7 479.174 445.8 479.274H442.5L433.2 491.374H503.6L495.4 479.274Z"
      />
      <path
        stroke-miterlimit="10"
        stroke-width="1.1113"
        stroke="#B3C6FC"
        d="M442.4 479.274H495.4"
      />
      <path
        fill="#E3EAFC"
        d="M495.4 479.274H490.9C490.9 479.274 491.2 471.974 475.4 470.374V479.274H472.6L469.9 491.374H503.5L495.4 479.274Z"
      />
      <path
        fill="#EFB448"
        d="M461.2 491.374H475.4L475 493.774H461.7L461.2 491.374Z"
      />
    </g>
    <g clip-path="url(#clip3_120_1457)">
      <path
        fill="#FFF8F8"
        d="M622.8 821.226C680.801 761.797 655.726 669.486 543.212 648.402C430.699 627.318 406.496 501.251 304.231 527.579C201.966 553.906 163.153 747.486 268.144 821.226H622.8Z"
        opacity="0.12"
      />
      <path
        fill="#008080"
        d="M352.965 821.226C352.965 823.848 330.179 825.923 302.16 825.923C274.14 825.923 251.354 823.848 251.354 821.226C251.354 818.604 274.14 816.528 302.16 816.528C330.179 816.528 352.965 818.604 352.965 821.226Z"
      />
      <path
        fill="#008080"
        d="M490.554 835.974C545.106 835.974 589.33 831.621 589.33 826.251C589.33 820.881 545.106 816.528 490.554 816.528C436.001 816.528 391.778 820.881 391.778 826.251C391.778 831.621 436.001 835.974 490.554 835.974Z"
      />
    </g>
    <g clip-path="url(#clip4_120_1457)">
      <path
        fill="#FDBE11"
        d="M531.9 735.574C532 749.574 530.7 762.974 527 774.974C516.8 808.674 488.6 831.874 422.5 829.774C332.8 826.874 316.5 743.474 309 665.474C303 602.274 322 555.774 379.1 540.374C392.4 536.874 407.7 534.974 425.2 534.974C505.9 534.974 531.6 682.274 531.9 735.574Z"
      />
      <path
        fill="#F49947"
        d="M527.1 775.074C516.9 808.774 488.7 831.974 422.6 829.874C332.9 826.974 316.6 743.574 309.1 665.574C303 602.274 322 555.774 379.1 540.374C330.1 570.274 317.9 624.674 337.9 707.574C357.9 790.374 408.5 814.474 441.2 814.574C474 814.574 515 803.874 527.1 775.074Z"
      />
      <path
        fill="#F49947"
        d="M402.5 613.174C338.5 624.574 366.4 715.974 380.6 741.474C394.7 767.074 400.8 797.374 433.4 798.674C466.1 799.974 507.8 785.174 511.9 774.474C515.9 763.674 497.5 707.574 497.5 707.574C497.5 707.574 494.9 650.774 477.2 635.874C459.5 620.874 423.8 609.374 402.5 613.174Z"
      />
      <path
        fill="#F27C49"
        d="M488.2 767.274C476.5 789.074 436.7 796.774 423 793.374C415 791.374 405.3 784.074 396.6 773.574C391 763.674 386.5 752.274 380.6 741.574C378.4 737.574 375.8 731.974 373.4 725.274C368.5 701.774 368.7 673.974 377.8 664.474C390.2 651.574 402.3 642.574 403.2 634.574C403.9 628.274 396.8 620.074 398.2 614.174C399.6 613.774 401 613.474 402.5 613.274C420 610.174 447.3 617.374 466.3 628.374C468.1 635.274 468.3 644.574 472.6 647.574C479.2 652.174 489.4 681.074 492 694.574C494.6 708.074 488.2 767.274 488.2 767.274Z"
      />
      <path
        fill="black"
        d="M575 801.874C575.5 810.074 599.3 799.574 602.4 795.074C602.4 795.074 589.4 832.474 582.6 832.474C575.8 832.474 557.3 812.974 557.3 812.974L559.5 801.874H575Z"
      />
      <path
        fill="#A8A8A8"
        d="M582.7 832.474C575.3 835.674 593.8 789.074 602.5 790.174C611.2 791.174 592.2 828.374 582.7 832.474Z"
      />
      <path
        fill="#31344C"
        d="M577.9 747.974C577.4 772.074 571.2 801.874 571.2 801.874H555.8C555.8 801.874 546.3 781.574 541.9 761.174C540.8 756.074 540 750.874 539.7 746.074C539.7 746.074 515.8 753.274 492.8 748.974C483.2 747.174 472.3 744.174 462.9 741.174C449.7 737.074 439.3 733.074 439.3 733.074L440.1 732.074L456.9 710.774L502.2 703.974L507.5 703.174L539.7 713.174C568.3 716.274 578.4 723.974 577.9 747.974Z"
      />
      <path
        fill="#232433"
        d="M541.8 761.174C540.7 756.074 539.9 750.874 539.6 746.074C539.6 746.074 515.7 753.274 492.7 748.974C483.1 747.174 472.2 744.174 462.8 741.174L440 732.074L438 731.274L434.2 715.474L482.9 698.474L502.1 703.974L534.3 713.174C526.5 727.174 542.2 743.774 545.6 748.674C549 753.674 558.8 745.574 565 748.674C571.4 751.774 546.8 750.274 541.8 761.174Z"
        opacity="0.54"
      />
      <path
        fill="black"
        d="M550.9 815.374C558 830.774 568.5 838.074 574.1 835.674L571.7 810.174L561.6 805.774L550.9 815.374Z"
      />
      <path
        fill="#A8A8A8"
        d="M574.1 835.674C561.6 837.774 564 813.674 564.7 801.974C565.4 790.274 575.2 791.274 576.2 800.374C577.2 809.374 582.5 834.274 574.1 835.674Z"
      />
      <path
        fill="#383952"
        d="M561.5 805.774L550.9 815.374C507.6 802.874 482.1 763.374 482.1 763.374C458 791.274 431.1 797.574 409.4 763.374C409.4 763.374 410.8 748.174 428.3 736.474C431.7 734.174 435.7 732.074 440.5 730.174C459.3 722.774 484.3 721.274 499.7 721.174C509 721.074 517.7 725.674 523.1 733.274C532.2 746.074 540.8 761.974 547.6 775.574C556 792.374 561.5 805.774 561.5 805.774Z"
      />
      <path
        fill="#232433"
        d="M561.5 805.774L550.9 815.374C507.6 802.874 482.1 763.374 482.1 763.374C458 791.274 431.1 797.574 409.4 763.374C409.4 763.374 410.8 748.174 428.3 736.474L446.4 733.074C425.2 774.674 476.1 764.974 485.3 757.374C494.5 749.774 503.2 742.174 507.3 741.774C511.4 741.374 489.8 757.374 505 775.574C520.3 793.774 555.5 805.174 547.5 775.574C556 792.374 561.5 805.774 561.5 805.774Z"
        opacity="0.54"
      />
      <path
        fill="#6D3744"
        d="M456 598.574H455.4C455.4 598.574 449 623.174 438 632.274C436 633.874 433.9 635.074 431.7 635.474C416.9 638.174 404.1 621.374 401.7 609.874C400.3 603.474 402.7 599.474 405.1 597.274C407 595.474 408.8 594.774 408.8 594.774C408.8 594.774 409.8 576.574 416.1 576.874C422.2 577.174 421.2 579.574 421.1 579.774C421.5 579.274 434.7 561.674 443.9 563.574C453.2 565.574 446.7 579.174 446.7 579.174C446.7 579.174 458.4 567.374 462.3 574.174C466.2 580.974 454.7 589.274 454.7 589.274C454.7 589.274 464.6 589.074 465.6 592.674C466.4 596.274 464.9 599.674 456 598.574Z"
      />
      <path
        fill="#542633"
        d="M438 632.274C436 633.874 433.9 635.074 431.7 635.474C416.9 638.174 404.1 621.374 401.7 609.874C400.3 603.474 402.7 599.474 405.1 597.274C407.3 600.074 410.2 605.874 416.9 598.574H420L438 632.274Z"
      />
      <path
        fill="#61648A"
        d="M477.2 705.374L409.8 767.874C406.5 764.974 403.7 761.874 401.2 758.674C396.6 752.774 393.3 746.474 391 739.874C389.2 734.974 388 729.874 387.2 724.674C385.4 712.874 385.6 700.474 386.4 688.174C388.2 659.374 396.8 640.174 431.4 639.674C431.4 639.674 447.2 635.274 459 641.574C468.2 646.574 474.2 683.174 476.4 698.674C476.9 702.674 477.2 705.374 477.2 705.374Z"
      />
      <path
        fill="#383952"
        d="M462.8 676.874C427.3 690.174 412.6 664.374 412.6 664.374L401.1 705.574L425.6 713.174L468.3 708.774L462.8 676.874Z"
        opacity="0.36"
      />
      <path
        fill="#383952"
        d="M477.2 705.374L409.8 767.874C406.5 764.974 403.7 761.874 401.2 758.674C412.9 757.774 438.1 729.774 431.5 728.274C425.6 726.974 405.2 740.874 391 739.874C389.2 734.974 388 729.874 387.2 724.674L408.8 705.774L476.2 698.674C476.9 702.674 477.2 705.374 477.2 705.374Z"
        opacity="0.36"
      />
      <path
        fill="#F4B8AB"
        d="M439.2 697.074C447.1 691.774 456.3 696.174 459.6 698.574C462.9 700.974 459.6 707.174 459.6 707.174C459.6 707.174 456 705.074 454.8 704.774C453.6 704.474 447.9 708.974 436.5 707.174C425.1 705.374 439.2 697.074 439.2 697.074Z"
      />
      <path
        fill="#61648A"
        d="M393 659.674C408.5 648.074 417.3 658.274 416.6 678.274C415.8 698.274 415.8 698.274 415.8 698.274C415.8 698.274 435.6 691.974 440.4 691.974C440.4 691.974 440.8 705.674 440.4 710.574C440.4 710.574 416.5 733.774 400.7 735.474C384.9 737.274 388.1 705.974 386.7 691.574C385.2 677.274 387.6 663.774 393 659.674Z"
      />
      <path
        fill="#C3C9F4"
        d="M456.9 708.074L468.7 660.374C469.9 655.474 474.3 652.074 479.3 652.074H546.9C551.3 652.074 554.6 656.274 553.5 660.574L539.9 710.474L456.9 708.074Z"
      />
      <path
        fill="#E0E7FF"
        d="M461.6 708.074L473.4 660.374C474.6 655.474 479 652.074 484 652.074H551.6C556 652.074 559.3 656.274 558.2 660.574L544.6 710.474L461.6 708.074Z"
      />
      <path
        fill="#C3C9F4"
        d="M524.9 712.774H439C437.7 712.774 436.6 711.674 436.6 710.374C436.6 709.074 437.7 707.974 439 707.974H524.9C526.2 707.974 527.3 709.074 527.3 710.374C527.3 711.774 526.2 712.774 524.9 712.774Z"
      />
      <path
        fill="#E0E7FF"
        d="M545.2 712.774H459.3C458 712.774 456.9 711.674 456.9 710.374C456.9 709.074 458 707.974 459.3 707.974H545.2C546.5 707.974 547.6 709.074 547.6 710.374C547.6 711.774 546.5 712.774 545.2 712.774Z"
      />
      <path
        fill="#C3C9F4"
        d="M516.4 681.174C515.3 687.374 512.5 692.074 510.1 691.674C507.8 691.274 506.8 685.874 507.9 679.674C509 673.474 511.8 668.774 514.2 669.174C516.6 669.574 517.6 674.974 516.4 681.174Z"
      />
      <path
        fill="#F4B8AB"
        d="M459.8 602.574C461.3 624.574 457.8 634.274 445.3 635.474V640.574C445.3 644.374 442.2 647.474 438.4 647.474C434.6 647.474 431.5 644.374 431.5 640.574V635.474C431.5 635.474 421.5 631.274 419.5 624.974C417.5 618.774 419.5 623.974 419.5 623.974L418.6 598.574H460L459.8 602.574Z"
      />
      <path
        fill="#F4B8AB"
        d="M420.3 614.474C417.2 608.774 413.5 611.174 412.7 614.474C412 617.774 418.6 625.874 420.3 623.074C422 620.174 420.3 614.474 420.3 614.474Z"
      />
      <path
        fill="#6D3744"
        d="M413.4 595.774C420.1 603.874 439 608.074 445.9 606.174C452.8 604.274 443 597.874 443 597.874C443 597.874 455.7 606.674 461.5 603.674C467.3 600.774 451.6 593.574 451.6 593.574L413.4 595.774Z"
      />
      <path
        stroke-miterlimit="10"
        stroke-width="2"
        stroke="#191918"
        d="M436.1 613.174C436.1 614.374 435.9 615.274 435.6 615.274C435.3 615.274 435.1 614.274 435.1 613.174C435.1 611.974 435.3 611.074 435.6 611.074C435.9 611.074 436.1 611.974 436.1 613.174Z"
      />
      <path
        stroke-miterlimit="10"
        stroke-width="2"
        stroke="#191918"
        d="M449.6 613.174C449.6 614.374 449.4 615.274 449.1 615.274C448.8 615.274 448.6 614.274 448.6 613.174C448.6 611.974 448.8 611.074 449.1 611.074C449.4 611.074 449.6 611.974 449.6 613.174Z"
      />
      <path
        stroke-linecap="round"
        stroke-miterlimit="10"
        stroke="#E56A85"
        d="M444.2 624.974C437.7 625.074 432.7 620.474 432.7 620.474"
      />
      <path
        fill="#DD6595"
        d="M445.4 635.474C439.9 635.974 433.5 635.774 433.5 635.774L445.4 640.574V635.474Z"
        opacity="0.53"
      />
      <path
        fill="#DD6595"
        d="M420 615.974C417.2 613.074 415.8 614.274 416 617.274C416.2 620.374 419.9 622.474 421.1 621.674C422.2 620.774 420 615.974 420 615.974Z"
        opacity="0.53"
      />
      <path
        fill="#FFC55A"
        d="M380.6 741.474C386.5 752.174 391 763.674 396.6 773.474C390.5 766.174 384.8 757.274 380.3 747.574C377.5 741.374 375.1 733.574 373.3 725.174C375.8 731.874 378.4 737.474 380.6 741.474Z"
      />
    </g>
    <g clip-path="url(#clip5_120_1457)">
      <path
        fill="#7C9E1E"
        d="M297.4 768.474C285 763.874 278.2 765.674 274.4 760.674C274.4 760.674 284.5 758.874 290.1 760.674L297.4 768.474Z"
      />
      <path
        fill="#B7AC15"
        d="M290 760.674C274.9 752.774 270.5 743.874 266.6 737.674C262.8 731.474 260.6 726.374 259.1 725.974C257.6 725.574 265.3 727.074 272.5 734.274C279.7 741.474 282.7 742.574 288.5 748.374C294.2 754.074 299.4 762.574 300 768.574H297.3L290 760.674Z"
      />
      <path
        fill="#7C9E1E"
        d="M294.3 758.474C286.2 745.974 293.5 738.874 283.7 724.674C272.2 708.074 275.8 691.474 277.5 680.974C277.5 680.974 274.9 693.074 285 704.974C295 716.774 304.8 721.374 305.7 738.974C306.6 756.574 303.1 768.474 303.1 768.474H297.4L294.3 758.474Z"
      />
      <path
        fill="#B7AC15"
        d="M301.7 768.474C299 756.774 304.3 736.774 304.7 716.974C305.1 697.174 294.1 682.474 310.4 663.974C310.4 663.974 307 667.374 311.7 680.974C316.4 694.574 326.8 708.874 321.7 727.174C316.6 745.474 305.6 760.474 305.7 768.474H301.7Z"
      />
      <path
        fill="#A88F14"
        d="M305.7 768.474C304 754.374 318.3 732.474 330.5 727.574C330.5 727.574 331.8 738.374 323.9 747.074C316 755.974 310.2 768.474 310.2 768.474H305.7Z"
      />
      <path
        fill="#426313"
        d="M310.2 768.474C310.7 759.174 318.8 755.874 327.1 753.474C327.1 753.474 317.1 763.574 315.4 768.474H310.2Z"
      />
      <path
        fill="#426313"
        d="M314.1 769.574C315.5 762.474 318.7 760.274 318.1 759.874C317.5 759.474 313.9 765.474 312.1 768.474C312.1 768.474 309.7 760.374 313.3 753.474C316.9 746.474 320.4 741.274 320.4 741.274C320.4 741.274 308.6 754.774 308 761.674C308 761.674 306.8 754.774 308.8 745.874C310.8 736.974 316.1 728.474 314.2 717.974C312.3 707.474 310.2 696.274 310.2 696.274C310.2 696.274 311.1 706.974 312.1 716.174C313.1 725.474 310.4 730.274 307.7 740.174C305 750.074 306.5 764.174 305.4 764.074C304.2 763.974 302.4 766.674 302.4 766.674C302.4 766.674 301.2 751.474 299.4 738.574C297.6 725.674 297.8 723.874 289.9 716.174C282 708.474 281 703.774 281 703.774C281 703.774 286.3 714.374 290.7 721.274C295.1 728.174 296.5 731.174 296.5 743.274C296.5 755.374 297.1 762.174 298.1 764.174C299.1 766.074 290.6 752.674 283.9 748.074C277.2 743.474 271.8 737.274 271.2 736.174C270.6 735.174 277.7 747.874 282.9 751.374C288.2 754.774 297.3 766.574 297.3 766.574L282.3 762.574L299.3 769.674H314.1V769.574Z"
        opacity="0.36"
      />
      <path
        fill="#3A3852"
        d="M327.5 772.274L319.5 818.274C319.4 818.874 319.2 819.374 318.9 819.774C318.1 821.174 316.6 822.074 314.9 822.074H286.2C283.9 822.074 282 820.374 281.6 818.174L274.1 772.174C273.6 769.374 275.8 766.774 278.7 766.774H322.9C325.8 766.874 328 769.474 327.5 772.274Z"
      />
      <path
        fill="#232433"
        d="M318.9 819.874C318.1 821.274 316.6 822.174 314.9 822.174H286.2C283.9 822.174 282 820.474 281.6 818.274L274.1 772.274C273.6 769.474 275.8 766.874 278.7 766.874H293.9C279.8 788.774 303.3 814.174 318.9 819.874Z"
        opacity="0.54"
      />
    </g>
    <defs>
      <linearGradient
        gradientUnits="userSpaceOnUse"
        y2="59"
        x2="1001.5"
        y1="742.5"
        x1="-35.5"
        id="paint0_linear_120_1457"
      >
        <stop stop-color="#018180" />
        <stop stop-color="#07C186" offset="1" />
      </linearGradient>
      <linearGradient
        gradientUnits="userSpaceOnUse"
        y2="68.5105"
        x2="922.867"
        y1="780.625"
        x1="-35.5"
        id="paint1_linear_120_1457"
      >
        <stop stop-color="#23BABC" />
        <stop stop-color="#77CCCD" offset="1" />
      </linearGradient>
      <linearGradient
        gradientUnits="userSpaceOnUse"
        y2="718.974"
        x2="433.691"
        y1="356.474"
        x1="433.691"
        id="paint2_linear_120_1457"
      >
        <stop stop-color="#0B9C9E" />
        <stop stop-opacity="0" stop-color="#E3EAFC" offset="1" />
      </linearGradient>
      <clipPath id="clip0_120_1457">
        <rect
          transform="translate(566 471.974)"
          fill="white"
          height="161.9"
          width="110.4"
        />
      </clipPath>
      <clipPath id="clip1_120_1457">
        <rect
          transform="translate(256 509.974)"
          fill="white"
          height="49.2"
          width="69.8"
        />
      </clipPath>
      <clipPath id="clip2_120_1457">
        <rect
          transform="translate(432 381.974)"
          fill="white"
          height="117.1"
          width="72.5"
        />
      </clipPath>
      <clipPath id="clip3_120_1457">
        <rect
          transform="translate(206 523.974)"
          fill="white"
          height="312"
          width="447"
        />
      </clipPath>
      <clipPath id="clip4_120_1457">
        <rect
          transform="translate(308 534.974)"
          fill="white"
          height="301.1"
          width="296.7"
        />
      </clipPath>
      <clipPath id="clip5_120_1457">
        <rect
          transform="translate(259 663.974)"
          fill="white"
          height="158.2"
          width="71.6"
        />
      </clipPath>
    </defs>
  </svg>