<svg xmlns="http://www.w3.org/2000/svg" fill="none" viewBox="0 0 961.9161676646708 958" style="max-height: 500px" width="961.9161676646708" height="958">
    <path fill="url(#paint0_linear_0_1)" d="M0 0H960V958H0V0Z"/>
    <circle fill="white" r="123.5" cy="-35" cx="840" opacity="0.15"/>
    <circle fill="white" r="82" cy="70" cx="-15" opacity="0.15"/>
    <circle fill="white" r="90.5" cy="940" cx="800" opacity="0.15"/>
    <circle fill="white" r="13" cy="255" cx="177" opacity="0.2"/>
    <circle fill="#008080" r="9" cy="408" cx="776"/>
    <circle fill="#008080" r="17.5" cy="355.5" cx="807.5" opacity="0.2"/>
    <circle fill="white" r="8.5" cy="303.5" cx="767.5" opacity="0.2"/>
    <circle fill="#7FE3E3" r="26" cy="335" cx="878"/>
    <g clip-path="url(#clip0_0_1)">
      <path fill="#008080" d="M481.553 676C536.106 676 580.33 671.647 580.33 666.277C580.33 660.908 536.106 656.555 481.553 656.555C427.001 656.555 382.777 660.908 382.777 666.277C382.777 671.647 427.001 676 481.553 676Z"/>
      <path fill="white" d="M534.6 385.5V412.6H513.5V385.4C513.5 368.8 500 355.3 483.4 355.3H475.6C459 355.3 445.5 368.8 445.5 385.4V412.6H424.3V385.5C424.3 357.8 446.8 335.3 474.5 335.3H484.5C512.1 335.3 534.6 357.8 534.6 385.5Z"/>
      <path fill="#2E2D41" d="M529.6 512.1H428.8C414.2 512.1 402.4 500.3 402.4 485.7V431.2C402.4 416.6 414.2 404.8 428.8 404.8H529.6C544.2 404.8 556 416.6 556 431.2V485.7C556 500.3 544.2 512.1 529.6 512.1Z"/>
      <path fill="white" d="M486.6 464.5L488.4 474.5H470.4L472.2 464.5C469.4 462.3 467.5 458.9 467.5 455C467.5 448.4 472.8 443.1 479.4 443.1C486 443.1 491.3 448.4 491.3 455C491.3 458.9 489.5 462.3 486.6 464.5Z"/>
      <path fill="#099D9F" d="M615 289.9L614.9 345.7C614.9 347.6 613.3 349.2 611.4 349.2H555.5C552.8 349.2 550.6 347 550.6 344.3C550.6 341.6 552.8 339.4 555.5 339.4H595.6C564.6 312.2 524 295.7 479.6 295.7C382.4 295.7 303.6 374.5 303.6 471.7C303.6 506.2 313.5 538.4 330.7 565.6L319.5 573.6C300.9 544.2 290 509.2 290 471.7C290 366.9 374.9 282 479.7 282C527.7 282 571.6 299.8 605 329.3V290C605 288.6 605.5 287.4 606.5 286.5C607.5 285.6 608.7 285 610 285C612.8 285 615 287.2 615 289.9Z"/>
      <path fill="#099D9F" d="M669.5 471.7C669.5 576.5 584.5 661.4 479.8 661.4C431.4 661.4 387.2 643.3 353.7 613.4V650.8C353.7 652.2 353.1 653.4 352.2 654.3C351.3 655.2 350.1 655.8 348.7 655.8C346 655.8 343.8 653.6 343.8 650.9L343.9 595.1C343.9 593.2 345.5 591.6 347.4 591.6H403.3C406 591.6 408.2 593.8 408.2 596.5C408.2 599.2 406 601.4 403.3 601.4H361C392.3 630.2 434.1 647.7 480 647.7C577.2 647.7 656 568.9 656 471.7C656 436.2 645.5 403.2 627.4 375.5L638.6 367.5C658 397.4 669.5 433.3 669.5 471.7Z"/>
      <path fill="#FDBE11" d="M563.8 571.4H475.4L426.7 609L426.6 571.4H395.2C368.2 571.4 346.2 549.5 346.2 522.4C346.2 495.4 368.1 473.4 395.2 473.4H563.8C590.8 473.4 612.8 495.3 612.8 522.4C612.7 549.5 590.8 571.4 563.8 571.4Z"/>
      <path fill="white" d="M388.5 541.3L381.8 536.2C381.4 535.9 381.1 535.4 381 534.9C380.9 534.3 381 533.8 381.3 533.4C381.3 533.3 381.5 533.1 381.8 532.8L388 527.7L379.9 527C379.7 526.9 379.6 526.9 379.5 526.9C379.4 526.9 379.3 526.9 379.3 526.9C378.8 526.8 378.4 526.4 378.1 525.9C377.8 525.4 377.7 524.8 377.9 524.2L380.7 516.1C380.8 515.6 381.2 515.2 381.7 515C382.3 514.7 382.8 514.7 383.2 514.8C383.3 514.8 383.5 514.9 384 515.1L390.7 519.4L388.8 511.6C388.7 511.4 388.7 511.3 388.7 511.1C388.7 510.9 388.7 510.9 388.7 510.8C388.7 510.3 388.9 509.8 389.3 509.4C389.7 509 390.2 508.7 390.8 508.7H399.4C400 508.7 400.5 508.9 400.9 509.4C401.3 509.8 401.5 510.3 401.5 510.8C401.5 510.9 401.5 511 401.5 511.1C401.5 511.2 401.5 511.4 401.4 511.6L399.5 519.4L406.3 515.1C406.7 514.9 406.9 514.8 407.1 514.8C407.6 514.7 408.1 514.7 408.7 515C409.2 515.3 409.6 515.6 409.7 516.1L412.5 524.2C412.6 524.8 412.5 525.3 412.3 525.9C412.1 526.5 411.6 526.8 411.1 526.9C411 526.9 411 526.9 410.9 526.9C410.8 526.9 410.7 527 410.5 527L402.4 527.7L408.6 532.8C408.9 533.1 409.1 533.3 409.1 533.4C409.4 533.8 409.5 534.4 409.5 534.9C409.4 535.5 409.2 535.9 408.6 536.2L401.8 541.3C401.3 541.6 400.8 541.6 400.2 541.6C399.6 541.5 399.2 541.3 398.9 540.8C398.9 540.7 398.9 540.6 398.8 540.5C398.7 540.4 398.6 540.3 398.5 540.1L395.4 532.6L392.4 540.1C392.3 540.3 392.3 540.4 392.2 540.5C392.1 540.6 392 540.7 391.9 540.8C391.6 541.2 391.2 541.5 390.6 541.6C389.5 541.6 389 541.5 388.5 541.3Z"/>
      <path fill="white" d="M430.7 541.3L424 536.2C423.6 535.9 423.3 535.4 423.2 534.9C423.1 534.3 423.2 533.8 423.5 533.4C423.5 533.3 423.7 533.1 424 532.8L430.2 527.7L422.1 527C421.9 526.9 421.8 526.9 421.7 526.9C421.6 526.9 421.5 526.9 421.5 526.9C421 526.8 420.6 526.4 420.3 525.9C420 525.4 419.9 524.8 420.1 524.2L422.9 516.1C423 515.6 423.4 515.2 423.9 515C424.5 514.7 425 514.7 425.4 514.8C425.5 514.8 425.7 514.9 426.2 515.1L432.9 519.4L431 511.6C430.9 511.4 430.9 511.3 430.9 511.1C430.9 510.9 430.9 510.9 430.9 510.8C430.9 510.3 431.1 509.8 431.5 509.4C431.9 509 432.4 508.7 433 508.7H441.6C442.2 508.7 442.7 508.9 443.1 509.4C443.5 509.8 443.7 510.3 443.7 510.8C443.7 510.9 443.7 511 443.7 511.1C443.7 511.2 443.7 511.4 443.6 511.6L441.7 519.4L448.5 515.1C448.9 514.9 449.1 514.8 449.3 514.8C449.8 514.7 450.3 514.7 450.9 515C451.4 515.3 451.8 515.6 451.9 516.1L454.7 524.2C454.8 524.8 454.7 525.3 454.5 525.9C454.3 526.5 453.8 526.8 453.3 526.9C453.2 526.9 453.2 526.9 453.1 526.9C453 526.9 452.9 527 452.7 527L444.6 527.7L450.8 532.8C451.1 533.1 451.3 533.3 451.3 533.4C451.6 533.8 451.7 534.4 451.7 534.9C451.6 535.5 451.4 535.9 450.8 536.2L444 541.3C443.5 541.6 443 541.6 442.4 541.6C441.8 541.5 441.4 541.3 441.1 540.8C441.1 540.7 441.1 540.6 441 540.5C440.9 540.4 440.8 540.3 440.7 540.1L437.6 532.6L434.6 540.1C434.5 540.3 434.5 540.4 434.4 540.5C434.3 540.6 434.2 540.7 434.1 540.8C433.8 541.2 433.4 541.5 432.8 541.6C431.8 541.6 431.2 541.5 430.7 541.3Z"/>
      <path fill="white" d="M473 541.3L466.3 536.2C465.9 535.9 465.6 535.4 465.5 534.9C465.4 534.3 465.5 533.8 465.8 533.4C465.8 533.3 466 533.1 466.3 532.8L472.5 527.7L464.4 527C464.2 526.9 464.1 526.9 464 526.9C463.9 526.9 463.8 526.9 463.8 526.9C463.3 526.8 462.9 526.4 462.6 525.9C462.3 525.4 462.2 524.8 462.4 524.2L465.2 516.1C465.3 515.6 465.7 515.2 466.2 515C466.8 514.7 467.3 514.7 467.7 514.8C467.8 514.8 468 514.9 468.5 515.1L475.2 519.4L473.3 511.6C473.2 511.4 473.2 511.3 473.2 511.1C473.2 510.9 473.2 510.9 473.2 510.8C473.2 510.3 473.4 509.8 473.8 509.4C474.2 509 474.7 508.7 475.3 508.7H483.9C484.5 508.7 485 508.9 485.4 509.4C485.8 509.8 486 510.3 486 510.8C486 510.9 486 511 486 511.1C486 511.2 486 511.4 485.9 511.6L484 519.4L490.8 515.1C491.2 514.9 491.4 514.8 491.6 514.8C492.1 514.7 492.6 514.7 493.2 515C493.7 515.3 494.1 515.6 494.2 516.1L497 524.2C497.1 524.8 497 525.3 496.8 525.9C496.6 526.5 496.1 526.8 495.6 526.9C495.5 526.9 495.5 526.9 495.4 526.9C495.3 526.9 495.2 527 495 527L486.9 527.7L493.1 532.8C493.4 533.1 493.6 533.3 493.6 533.4C493.9 533.8 494 534.4 494 534.9C493.9 535.5 493.7 535.9 493.1 536.2L486.3 541.3C485.8 541.6 485.3 541.6 484.7 541.6C484.1 541.5 483.7 541.3 483.4 540.8C483.4 540.7 483.4 540.6 483.3 540.5C483.2 540.4 483.1 540.3 483 540.1L479.9 532.6L476.9 540.1C476.8 540.3 476.8 540.4 476.7 540.5C476.6 540.6 476.5 540.7 476.4 540.8C476.1 541.2 475.7 541.5 475.1 541.6C474.1 541.6 473.5 541.5 473 541.3Z"/>
      <path fill="white" d="M515.3 541.3L508.6 536.2C508.2 535.9 507.9 535.4 507.8 534.9C507.7 534.3 507.8 533.8 508.1 533.4C508.1 533.3 508.3 533.1 508.6 532.8L514.8 527.7L506.7 527C506.5 526.9 506.4 526.9 506.3 526.9C506.2 526.9 506.1 526.9 506.1 526.9C505.6 526.8 505.2 526.4 504.9 525.9C504.6 525.4 504.5 524.8 504.7 524.2L507.5 516.1C507.6 515.6 508 515.2 508.5 515C509.1 514.7 509.6 514.7 510 514.8C510.1 514.8 510.3 514.9 510.8 515.1L517.5 519.4L515.6 511.6C515.5 511.4 515.5 511.3 515.5 511.1C515.5 510.9 515.5 510.9 515.5 510.8C515.5 510.3 515.7 509.8 516.1 509.4C516.5 509 517 508.7 517.6 508.7H526.1C526.7 508.7 527.2 508.9 527.6 509.4C528 509.8 528.2 510.3 528.2 510.8C528.2 510.9 528.2 511 528.2 511.1C528.2 511.2 528.2 511.4 528.1 511.6L526.2 519.4L533 515.1C533.4 514.9 533.6 514.8 533.8 514.8C534.3 514.7 534.8 514.7 535.4 515C535.9 515.3 536.3 515.6 536.4 516.1L539.2 524.2C539.3 524.8 539.2 525.3 539 525.9C538.8 526.5 538.3 526.8 537.8 526.9C537.7 526.9 537.7 526.9 537.6 526.9C537.5 526.9 537.4 527 537.2 527L529.1 527.7L535.3 532.8C535.6 533.1 535.8 533.3 535.8 533.4C536.1 533.8 536.2 534.4 536.2 534.9C536.1 535.5 535.9 535.9 535.3 536.2L528.5 541.3C528 541.6 527.5 541.6 526.9 541.6C526.3 541.5 525.9 541.3 525.6 540.8C525.6 540.7 525.6 540.6 525.5 540.5C525.4 540.4 525.3 540.3 525.2 540.1L522.1 532.6L519.1 540.1C519 540.3 519 540.4 518.9 540.5C518.8 540.6 518.7 540.7 518.6 540.8C518.3 541.2 517.9 541.5 517.3 541.6C516.3 541.6 515.8 541.5 515.3 541.3Z"/>
      <path fill="white" d="M557.6 541.3L550.9 536.2C550.5 535.9 550.2 535.4 550.1 534.9C550 534.3 550.1 533.8 550.4 533.4C550.4 533.3 550.6 533.1 550.9 532.8L557.1 527.7L549 527C548.8 526.9 548.7 526.9 548.6 526.9C548.5 526.9 548.4 526.9 548.4 526.9C547.9 526.8 547.5 526.4 547.2 525.9C546.9 525.4 546.8 524.8 547 524.2L549.8 516.1C549.9 515.6 550.3 515.2 550.8 515C551.4 514.7 551.9 514.7 552.3 514.8C552.4 514.8 552.6 514.9 553.1 515.1L559.8 519.4L557.9 511.6C557.8 511.4 557.8 511.3 557.8 511.1C557.8 510.9 557.8 510.9 557.8 510.8C557.8 510.3 558 509.8 558.4 509.4C558.8 509 559.3 508.7 559.9 508.7H568.4C569 508.7 569.5 508.9 569.9 509.4C570.3 509.8 570.5 510.3 570.5 510.8C570.5 510.9 570.5 511 570.5 511.1C570.5 511.2 570.5 511.4 570.4 511.6L568.5 519.4L575.3 515.1C575.7 514.9 575.9 514.8 576.1 514.8C576.6 514.7 577.1 514.7 577.7 515C578.2 515.3 578.6 515.6 578.7 516.1L581.5 524.2C581.6 524.8 581.5 525.3 581.3 525.9C581.1 526.5 580.6 526.8 580.1 526.9C580 526.9 580 526.9 579.9 526.9C579.8 526.9 579.7 527 579.5 527L571.4 527.7L577.6 532.8C577.9 533.1 578.1 533.3 578.1 533.4C578.4 533.8 578.5 534.4 578.5 534.9C578.4 535.5 578.2 535.9 577.6 536.2L570.8 541.3C570.3 541.6 569.8 541.6 569.2 541.6C568.6 541.5 568.2 541.3 567.9 540.8C567.9 540.7 567.9 540.6 567.8 540.5C567.7 540.4 567.6 540.3 567.5 540.1L564.4 532.6L561.4 540.1C561.3 540.3 561.3 540.4 561.2 540.5C561.1 540.6 561 540.7 560.9 540.8C560.6 541.2 560.2 541.5 559.6 541.6C558.6 541.6 558.1 541.5 557.6 541.3Z"/>
    </g>
    <defs>
      <linearGradient gradientUnits="userSpaceOnUse" y2="-53.4895" x2="922.867" y1="658.625" x1="-35.5" id="paint0_linear_0_1">
        <stop stop-color="#23BABC"/>
        <stop stop-color="#77CCCD" offset="1"/>
      </linearGradient>
      <clipPath id="clip0_0_1">
        <rect transform="translate(290 282)" fill="white" height="394" width="379"/>
      </clipPath>
    </defs>
  </svg>